<svg width="300" height="200" viewBox="0 0 300 200" fill="none" xmlns="http://www.w3.org/2000/svg">
<path fill-rule="evenodd" clip-rule="evenodd" d="M255.524 48.9379C250.007 33.9408 237.557 19.8413 219.799 10.5442C195.326 -2.26782 167.485 -2.44454 147.992 8.15227C130.386 -0.627465 110.015 -1.95523 92.6107 6.30044C73.7544 15.2451 62.8363 33.3265 61.6861 53.5071C35.3849 55.7502 13.0777 68.427 4.14791 88.9255C-9.78383 120.906 14.1218 159.815 57.5426 175.83C61.1226 177.151 64.7235 178.274 68.3253 179.206C80.8792 191.802 97.9219 199.543 116.694 199.543C126.171 199.543 135.207 197.57 143.447 193.996C150.265 197.187 157.682 198.938 165.44 198.938C187.2 198.938 206.281 185.159 216.964 164.469C228.33 168.548 240.895 169.518 253.295 166.576C286.618 158.668 306.131 125.5 296.88 92.4922C291.011 71.5509 274.974 55.7053 255.524 48.9379Z" fill="white"/>
</svg>
